<mxfile host="app.diagrams.net" modified="2024-06-19T02:58:21.652Z" agent="Mozilla/5.0 (Macintosh; Intel Mac OS X 10_15_7) AppleWebKit/537.36 (KHTML, like Gecko) Chrome/125.0.0.0 Safari/537.36" etag="H33XFhGtfnP2TI3tnqUL" version="24.5.5" type="github">
  <diagram name="第 1 页" id="y_jGyfgOauPKoaNMHxG2">
    <mxGraphModel dx="1306" dy="1870" grid="1" gridSize="10" guides="1" tooltips="1" connect="1" arrows="1" fold="1" page="1" pageScale="1" pageWidth="827" pageHeight="1169" math="0" shadow="0">
      <root>
        <mxCell id="0" />
        <mxCell id="1" parent="0" />
        <mxCell id="X5SY3M9Ok3CyjavdbJ3U-3" style="edgeStyle=orthogonalEdgeStyle;rounded=0;orthogonalLoop=1;jettySize=auto;html=1;entryX=0.5;entryY=0;entryDx=0;entryDy=0;" edge="1" parent="1" source="fPiGpIivbQyJuC3MgnK4-16" target="X5SY3M9Ok3CyjavdbJ3U-1">
          <mxGeometry relative="1" as="geometry" />
        </mxCell>
        <mxCell id="fPiGpIivbQyJuC3MgnK4-16" value="开始" style="ellipse;whiteSpace=wrap;html=1;fillColor=none;" parent="1" vertex="1">
          <mxGeometry x="210" y="-610" width="120" height="80" as="geometry" />
        </mxCell>
        <mxCell id="X5SY3M9Ok3CyjavdbJ3U-5" style="edgeStyle=orthogonalEdgeStyle;rounded=0;orthogonalLoop=1;jettySize=auto;html=1;exitX=0.5;exitY=1;exitDx=0;exitDy=0;entryX=0.5;entryY=0;entryDx=0;entryDy=0;" edge="1" parent="1" source="X5SY3M9Ok3CyjavdbJ3U-1" target="X5SY3M9Ok3CyjavdbJ3U-4">
          <mxGeometry relative="1" as="geometry" />
        </mxCell>
        <mxCell id="X5SY3M9Ok3CyjavdbJ3U-1" value="精卫触发（报价变更）" style="rounded=1;whiteSpace=wrap;html=1;fillColor=none;" vertex="1" parent="1">
          <mxGeometry x="170" y="-490" width="200" height="60" as="geometry" />
        </mxCell>
        <mxCell id="X5SY3M9Ok3CyjavdbJ3U-2" value="估价器1期不考虑资源离线精卫触发、sku离线精卫触发" style="text;html=1;align=center;verticalAlign=middle;whiteSpace=wrap;rounded=0;" vertex="1" parent="1">
          <mxGeometry x="400" y="-480" width="210" height="50" as="geometry" />
        </mxCell>
        <mxCell id="X5SY3M9Ok3CyjavdbJ3U-7" style="edgeStyle=orthogonalEdgeStyle;rounded=0;orthogonalLoop=1;jettySize=auto;html=1;exitX=0.5;exitY=1;exitDx=0;exitDy=0;" edge="1" parent="1" source="X5SY3M9Ok3CyjavdbJ3U-4" target="X5SY3M9Ok3CyjavdbJ3U-6">
          <mxGeometry relative="1" as="geometry" />
        </mxCell>
        <mxCell id="X5SY3M9Ok3CyjavdbJ3U-4" value="离线任务处理（更新&lt;br&gt;t_sc_ocean_fcl_offline_solution）" style="rounded=1;whiteSpace=wrap;html=1;fillColor=none;" vertex="1" parent="1">
          <mxGeometry x="170" y="-390" width="200" height="60" as="geometry" />
        </mxCell>
        <mxCell id="X5SY3M9Ok3CyjavdbJ3U-9" style="edgeStyle=orthogonalEdgeStyle;rounded=0;orthogonalLoop=1;jettySize=auto;html=1;exitX=0.5;exitY=1;exitDx=0;exitDy=0;entryX=0.5;entryY=0;entryDx=0;entryDy=0;" edge="1" parent="1" source="X5SY3M9Ok3CyjavdbJ3U-6" target="X5SY3M9Ok3CyjavdbJ3U-8">
          <mxGeometry relative="1" as="geometry" />
        </mxCell>
        <mxCell id="X5SY3M9Ok3CyjavdbJ3U-12" style="edgeStyle=orthogonalEdgeStyle;rounded=0;orthogonalLoop=1;jettySize=auto;html=1;exitX=1;exitY=0.5;exitDx=0;exitDy=0;entryX=0;entryY=0.5;entryDx=0;entryDy=0;" edge="1" parent="1" source="X5SY3M9Ok3CyjavdbJ3U-6" target="X5SY3M9Ok3CyjavdbJ3U-11">
          <mxGeometry relative="1" as="geometry" />
        </mxCell>
        <mxCell id="X5SY3M9Ok3CyjavdbJ3U-6" value="是否在估价器白名单" style="rhombus;whiteSpace=wrap;html=1;fillColor=none;" vertex="1" parent="1">
          <mxGeometry x="195" y="-290" width="150" height="90" as="geometry" />
        </mxCell>
        <mxCell id="X5SY3M9Ok3CyjavdbJ3U-8" value="结束" style="rounded=1;whiteSpace=wrap;html=1;fillColor=none;" vertex="1" parent="1">
          <mxGeometry x="170" y="-20" width="200" height="60" as="geometry" />
        </mxCell>
        <mxCell id="X5SY3M9Ok3CyjavdbJ3U-10" value="否" style="text;html=1;align=center;verticalAlign=middle;whiteSpace=wrap;rounded=0;" vertex="1" parent="1">
          <mxGeometry x="210" y="-190" width="60" height="30" as="geometry" />
        </mxCell>
        <mxCell id="X5SY3M9Ok3CyjavdbJ3U-14" style="edgeStyle=orthogonalEdgeStyle;rounded=0;orthogonalLoop=1;jettySize=auto;html=1;exitX=0.5;exitY=1;exitDx=0;exitDy=0;entryX=0.5;entryY=0;entryDx=0;entryDy=0;" edge="1" parent="1" source="X5SY3M9Ok3CyjavdbJ3U-11" target="X5SY3M9Ok3CyjavdbJ3U-13">
          <mxGeometry relative="1" as="geometry" />
        </mxCell>
        <mxCell id="X5SY3M9Ok3CyjavdbJ3U-11" value="epc离线任务处理（更新&lt;br&gt;t_sc_estimator_ocean_fcl_offline_solution）" style="rounded=1;whiteSpace=wrap;html=1;fillColor=none;" vertex="1" parent="1">
          <mxGeometry x="430" y="-272.5" width="236" height="55" as="geometry" />
        </mxCell>
        <mxCell id="X5SY3M9Ok3CyjavdbJ3U-15" style="edgeStyle=orthogonalEdgeStyle;rounded=0;orthogonalLoop=1;jettySize=auto;html=1;exitX=0.5;exitY=1;exitDx=0;exitDy=0;entryX=0.5;entryY=0;entryDx=0;entryDy=0;" edge="1" parent="1" source="X5SY3M9Ok3CyjavdbJ3U-13" target="X5SY3M9Ok3CyjavdbJ3U-8">
          <mxGeometry relative="1" as="geometry" />
        </mxCell>
        <mxCell id="X5SY3M9Ok3CyjavdbJ3U-13" value="更新epc Tair数据" style="rounded=1;whiteSpace=wrap;html=1;fillColor=none;" vertex="1" parent="1">
          <mxGeometry x="430" y="-160" width="236" height="55" as="geometry" />
        </mxCell>
      </root>
    </mxGraphModel>
  </diagram>
</mxfile>
